<?xml version="1.0" encoding="UTF-8" standalone="no"?>
<!-- Created with Inkscape (http://www.inkscape.org/) -->

<svg
   width="32"
   height="32"
   viewBox="0 0 8.4666666 8.4666666"
   version="1.1"
   id="svg5"
   inkscape:version="1.2.2 (b0a8486541, 2022-12-01)"
   sodipodi:docname="icon.svg"
   inkscape:export-filename="icon.png"
   inkscape:export-xdpi="96"
   inkscape:export-ydpi="96"
   xmlns:inkscape="http://www.inkscape.org/namespaces/inkscape"
   xmlns:sodipodi="http://sodipodi.sourceforge.net/DTD/sodipodi-0.dtd"
   xmlns="http://www.w3.org/2000/svg"
   xmlns:svg="http://www.w3.org/2000/svg">
  <sodipodi:namedview
     id="namedview7"
     pagecolor="#505050"
     bordercolor="#eeeeee"
     borderopacity="1"
     inkscape:showpageshadow="0"
     inkscape:pageopacity="0"
     inkscape:pagecheckerboard="0"
     inkscape:deskcolor="#505050"
     inkscape:document-units="mm"
     showgrid="false"
     inkscape:zoom="16.905444"
     inkscape:cx="8.1334747"
     inkscape:cy="15.409237"
     inkscape:window-width="1920"
     inkscape:window-height="1031"
     inkscape:window-x="1920"
     inkscape:window-y="24"
     inkscape:window-maximized="1"
     inkscape:current-layer="text184" />
  <defs
     id="defs2">
    <rect
       x="0.4424021"
       y="20.207431"
       width="30.83244"
       height="11.325611"
       id="rect1061" />
    <rect
       x="0.23224499"
       y="1.225248"
       width="31.907677"
       height="30.638886"
       id="rect186" />
  </defs>
  <g
     inkscape:label="Layer 1"
     inkscape:groupmode="layer"
     id="layer1">
    <g
       aria-label="巛"
       transform="matrix(1.7365754,0,0,1.7365754,-0.82233057,1.8735894)"
       id="text184"
       style="font-size:5.33333px;font-family:FreeSerif;-inkscape-font-specification:FreeSerif;letter-spacing:0px;word-spacing:0px;white-space:pre">
      <path
         style="fill:#00009f;fill-opacity:1;stroke-width:0.866154"
         d="M 0.92765542,0.57792244 Q 1.5632616,1.0098975 1.8853399,1.5204136 q 0.1624644,0.2588281 0.1624644,0.4034149 0,0.1713619 -0.2280201,0.1713619 -0.1339615,0 -0.2052181,-0.2445478 Q 1.4407006,1.2437368 0.72243733,0.58506385 l 0.0399034,-0.0392707 Q 1.2839369,0.0067168 1.6088654,-0.66445112 q 0.5614996,0.10888628 0.5614996,0.18564219 0,0.0517656 -0.2793246,0.0731859 -0.3904844,0.5194414 -0.96338504,0.9835469 z"
         id="path1057" />
      <path
         style="fill:#00009f;fill-opacity:1;stroke-width:0.866154"
         d="m 3.6752975,0.5636425 0.059854,-0.0624759 q 0.5158954,-0.54264642 0.8750271,-1.185254 0.5472482,0.12673649 0.5472482,0.20170738 0,0.0553356 -0.2850252,0.0660458 -0.3049759,0.39984604 -0.9918864,0.96926772 0.6698089,0.44090025 1.0146894,0.8407451 0.2565226,0.2945284 0.2565226,0.4533953 0,0.1535118 -0.2109185,0.1535118 -0.1368115,0 -0.2308703,-0.2195577 Q 4.4420151,1.2098213 3.7579547,0.63325946 Z"
         id="path1055" />
      <path
         style="fill:#000062;fill-opacity:1;stroke-width:0.866154"
         d="m 2.1532635,0.56721369 q 0.5700503,-0.57834685 0.90923,-1.24237468 0.5443981,0.12495146 0.5443981,0.19992236 0,0.0571206 -0.2821749,0.0624757 -0.2878754,0.39448969 -0.9747859,0.96926649 l 0.025652,0.0107101 q 0.6840608,0.46232044 1.0089893,0.90679084 0.2109185,0.2838183 0.2109185,0.4159098 0,0.1463718 -0.1995175,0.1463718 -0.1311115,0 -0.22802,-0.2159876 Q 2.9142805,1.2294564 2.1532635,0.56721369 Z"
         id="path398" />
      <g
         aria-label="NADI"
         transform="matrix(0.31524435,0,0,0.31524435,0.72830101,-3.4542697)"
         id="text1059">
        <path
           d="M 4.2300238,18.377699 V 18.276366 H 2.9766912 v 0.101333 c 0.4106664,0.032 0.5119997,0.128 0.5119997,0.682666 v 1.797333 L 1.4353588,18.276366 H 0.52335933 v 0.101333 c 0.22933319,0 0.30399982,0.04267 0.51733307,0.293333 v 2.351999 c 0,0.549333 -0.0746667,0.650666 -0.51733307,0.682666 V 21.80703 H 1.7766919 v -0.101333 c -0.4106664,-0.02133 -0.501333,-0.144 -0.501333,-0.682666 v -2.090666 l 2.3573319,2.933332 h 0.090667 v -2.805332 c 0,-0.623999 0.1813332,-0.650666 0.5066664,-0.682666 z"
           id="path4071"
           style="fill:#3e4141;fill-opacity:1" />
        <path
           d="m 8.0753568,21.705697 c -0.2399999,-0.016 -0.3039998,-0.064 -0.4799997,-0.464 L 6.2673579,18.212366 H 6.1606913 L 5.0513586,20.831031 C 4.7206921,21.61503 4.6460255,21.69503 4.3900256,21.705697 V 21.80703 H 5.446025 v -0.101333 c -0.2559998,0 -0.3626664,-0.06933 -0.3626664,-0.218667 0,-0.064 0.016,-0.138666 0.042667,-0.207999 l 0.2453332,-0.624 h 1.3973325 l 0.2186665,0.512 c 0.064,0.144 0.1013333,0.282666 0.1013333,0.357333 0,0.133333 -0.090667,0.176 -0.3733331,0.181333 V 21.80703 H 8.0753568 Z M 5.462025,20.436364 6.075358,18.969699 6.6940243,20.436364 Z"
           id="path4073"
           style="fill:#3e4141;fill-opacity:1" />
        <path
           d="m 11.803358,20.025698 c 0,-0.773333 -0.437333,-1.749332 -2.1279987,-1.749332 H 8.2353602 v 0.101333 c 0.4213331,0.03733 0.469333,0.08533 0.469333,0.48 v 2.367998 c 0,0.384 -0.064,0.453333 -0.469333,0.48 v 0.101333 h 1.5146657 c 1.6426661,0 2.0533321,-1.045332 2.0533321,-1.781332 z m -0.581333,0.03733 c 0,1.157333 -0.693333,1.546666 -1.6959989,1.546666 -0.2133332,0 -0.2773332,-0.048 -0.2773332,-0.218666 v -2.709332 c 0,-0.165333 0.058667,-0.208 0.2773332,-0.208 1.3546659,0 1.6959989,0.874666 1.6959989,1.589332 z"
           id="path4075" />
        <path
           d="m 12.587357,21.225697 c 0,0.4 -0.06933,0.464 -0.517333,0.48 v 0.101333 h 1.583999 v -0.101333 c -0.437333,-0.016 -0.522667,-0.09067 -0.522667,-0.48 v -2.367998 c 0,-0.389333 0.07467,-0.458667 0.522667,-0.48 v -0.101333 h -1.583999 v 0.101333 c 0.453333,0.02667 0.517333,0.08533 0.517333,0.48 z"
           id="path4077" />
      </g>
    </g>
  </g>
</svg>
